<svg aria-hidden="true" style="position: absolute; width: 0; height: 0; overflow: hidden;" version="1.1"
    xmlns="http://www.w3.org/2000/svg"
    xmlns:xlink="http://www.w3.org/1999/xlink">
    <defs>
        <symbol id="icon-search" viewBox="0 0 20 24">4            <path d="M0.899231 8.61328C0.899231 9.6875 1.10105 10.695 1.5047 11.6357C1.90835 12.5765 2.46824 13.405 3.18439 14.1211C3.90054 14.8372 4.72899 15.3971 5.66974 15.8008C6.61049 16.2044 7.61798 16.4062 8.6922 16.4062C9.53855 16.4062 10.3458 16.276 11.114 16.0156C11.8823 15.7552 12.5854 15.3971 13.2234 14.9414L18.0281 19.7558C18.1453 19.8665 18.2739 19.9496 18.4138 20.0049C18.5538 20.0602 18.702 20.0879 18.8582 20.0879C19.0796 20.0879 19.2749 20.0374 19.4441 19.9365C19.6134 19.8356 19.7452 19.6972 19.8396 19.5215C19.934 19.3457 19.9812 19.1504 19.9812 18.9355C19.9812 18.7793 19.9536 18.6328 19.8982 18.4961C19.8429 18.3594 19.7632 18.2389 19.659 18.1348L14.8836 13.3301C15.3849 12.679 15.7771 11.9531 16.0603 11.1523C16.3435 10.3516 16.4851 9.50521 16.4851 8.61328C16.4851 7.53906 16.2833 6.53158 15.8797 5.59082C15.4761 4.65007 14.9162 3.82162 14.2 3.10547C13.4839 2.38933 12.6554 1.82943 11.7146 1.42578C10.7739 1.02214 9.76642 0.820312 8.6922 0.820312C7.61798 0.820312 6.61049 1.02214 5.66974 1.42578C4.72899 1.82943 3.90054 2.38933 3.18439 3.10547C2.46824 3.82162 1.90835 4.65007 1.5047 5.59082C1.10105 6.53158 0.899231 7.53906 0.899231 8.61328ZM2.56915 8.61328C2.56915 7.76693 2.72703 6.97429 3.04278 6.23535C3.35854 5.49642 3.79799 4.84538 4.36114 4.28222C4.92429 3.71908 5.57534 3.27962 6.31427 2.96386C7.0532 2.64811 7.84585 2.49023 8.6922 2.49023C9.53855 2.49023 10.3312 2.64811 11.0701 2.96386C11.8091 3.27962 12.4585 3.71908 13.0183 4.28222C13.5783 4.84538 14.0177 5.49642 14.3367 6.23535C14.6557 6.97429 14.8152 7.76693 14.8152 8.61328C14.8152 9.45964 14.6557 10.2523 14.3367 10.9912C14.0177 11.7301 13.5783 12.3795 13.0183 12.9394C12.4585 13.4993 11.8091 13.9388 11.0701 14.2578C10.3312 14.5768 9.53855 14.7363 8.6922 14.7363C7.84585 14.7363 7.0532 14.5768 6.31427 14.2578C5.57534 13.9388 4.92429 13.4993 4.36114 12.9394C3.79799 12.3795 3.35854 11.7301 3.04278 10.9912C2.72703 10.2523 2.56915 9.45964 2.56915 8.61328Z"/>
        </symbol>
        <symbol id="icon-edit" viewBox="0 0 21 21">
            <path d="M3.79663 19.2887H15.2614C16.1404 19.2887 16.8223 19.0364 17.3073 18.5318C17.7924 18.0273 18.0349 17.2704 18.0349 16.2613V5.82187L16.4626 7.39414V16.1832C16.4626 16.691 16.3422 17.0735 16.1013 17.3307C15.8605 17.5878 15.574 17.7164 15.2419 17.7164H3.82592C3.33764 17.7164 2.96167 17.5878 2.69799 17.3307C2.43433 17.0735 2.30249 16.691 2.30249 16.1832V5.09922C2.30249 4.59141 2.43433 4.20729 2.69799 3.94687C2.96167 3.68646 3.33764 3.55625 3.82592 3.55625H12.7224L14.2947 1.98398H3.79663C2.78101 1.98398 2.01603 2.23626 1.50171 2.74082C0.987386 3.24538 0.730225 4.00222 0.730225 5.01133V16.2613C0.730225 17.2704 0.987386 18.0273 1.50171 18.5318C2.01603 19.0364 2.78101 19.2887 3.79663 19.2887ZM7.35131 12.9605L9.25561 12.1305L18.3767 3.01914L17.0388 1.70078L7.92749 10.8121L7.04858 12.648C7.00952 12.7327 7.02743 12.8157 7.10229 12.8971C7.17717 12.9784 7.26017 12.9996 7.35131 12.9605ZM19.0993 2.30625L19.8025 1.58359C19.9653 1.40781 20.0483 1.21413 20.0515 1.00254C20.0548 0.790951 19.9718 0.603776 19.8025 0.441016L19.5779 0.206641C19.4281 0.0569011 19.2475 -0.0114584 19.0359 0.0015625C18.8243 0.0145833 18.6371 0.0992188 18.4743 0.255469L17.7614 0.958594L19.0993 2.30625Z"/>
        </symbol>
        <symbol id="icon-loading" viewBox="0 0 100 100">
            <path opacity="0.0833333" d="M69.402 10.395L59.902 26.8494C59.0736 28.2843 59.5652 30.1191 61.0001 30.9475C62.4349 31.7759 64.2697 31.2843 65.0981 29.8494L74.5981 13.395C75.4266 11.9601 74.9349 10.1253 73.5001 9.29688C72.0652 8.46845 70.2304 8.96007 69.402 10.395Z"/>
            <path opacity="0.166667" d="M86.6052 25.402L70.1507 34.902C68.7158 35.7304 68.2242 37.5652 69.0526 39.0001C69.881 40.4349 71.7158 40.9266 73.1507 40.0981L89.6052 30.5981C91.04 29.7697 91.5317 27.9349 90.7032 26.5001C89.8748 25.0652 88.04 24.5736 86.6052 25.402Z"/>
            <path opacity="0.25" d="M94 47H75C73.3431 47 72 48.3431 72 50C72 51.6569 73.3431 53 75 53H94C95.6569 53 97 51.6569 97 50C97 48.3431 95.6569 47 94 47Z"/>
            <path opacity="0.333333" d="M89.6052 69.402L73.1507 59.902C71.7158 59.0736 69.881 59.5652 69.0526 61.0001C68.2242 62.4349 68.7158 64.2697 70.1507 65.0981L86.6052 74.5981C88.04 75.4266 89.8748 74.9349 90.7032 73.5001C91.5317 72.0652 91.04 70.2304 89.6052 69.402Z"/>
            <path opacity="0.416667" d="M74.598 86.6052L65.098 70.1507C64.2696 68.7158 62.4348 68.2242 60.9999 69.0526C59.5651 69.881 59.0734 71.7158 59.9019 73.1507L69.4019 89.6052C70.2303 91.04 72.0651 91.5317 73.4999 90.7032C74.9348 89.8748 75.4264 88.04 74.598 86.6052Z"/>
            <path opacity="0.5" d="M53 94V75C53 73.3431 51.6569 72 50 72C48.3431 72 47 73.3431 47 75V94C47 95.6569 48.3431 97 50 97C51.6569 97 53 95.6569 53 94Z"/>
            <path opacity="0.583333" d="M30.598 89.6052L40.098 73.1507C40.9264 71.7158 40.4348 69.881 38.9999 69.0526C37.5651 68.2242 35.7303 68.7158 34.9019 70.1507L25.4019 86.6052C24.5734 88.04 25.0651 89.8748 26.4999 90.7032C27.9348 91.5317 29.7696 91.04 30.598 89.6052Z"/>
            <path opacity="0.666667" d="M13.3948 74.598L29.8493 65.098C31.2842 64.2696 31.7758 62.4348 30.9474 60.9999C30.119 59.5651 28.2842 59.0734 26.8493 59.9019L10.3948 69.4019C8.95995 70.2303 8.46833 72.0651 9.29675 73.4999C10.1252 74.9348 11.96 75.4264 13.3948 74.598Z"/>
            <path opacity="0.75" d="M6 53H25C26.6569 53 28 51.6569 28 50C28 48.3431 26.6569 47 25 47H6C4.34315 47 3 48.3431 3 50C3 51.6569 4.34315 53 6 53Z"/>
            <path opacity="0.833333" d="M10.3948 30.598L26.8493 40.098C28.2842 40.9264 30.119 40.4348 30.9474 38.9999C31.7758 37.5651 31.2842 35.7303 29.8493 34.9019L13.3948 25.4019C11.96 24.5734 10.1252 25.0651 9.29675 26.4999C8.46833 27.9348 8.95995 29.7696 10.3948 30.598Z"/>
            <path opacity="0.916667" d="M25.402 13.3948L34.902 29.8493C35.7304 31.2842 37.5652 31.7758 39.0001 30.9474C40.4349 30.119 40.9266 28.2842 40.0981 26.8493L30.5981 10.3948C29.7697 8.95995 27.9349 8.46833 26.5001 9.29675C25.0652 10.1252 24.5736 11.96 25.402 13.3948Z"/>
        </symbol>
        <symbol id="icon-left" viewBox="0 0 11 18">
            <path d="M0.628815 8.62298C0.628815 8.74668 0.651601 8.86224 0.697174 8.96966C0.742747 9.07709 0.811107 9.17637 0.902253 9.26751L8.64639 16.8359C8.82218 17.0117 9.03376 17.0995 9.28115 17.0995C9.45043 17.0995 9.6018 17.0605 9.73526 16.9823C9.86872 16.9043 9.97614 16.7985 10.0575 16.665C10.1389 16.5316 10.1796 16.3802 10.1796 16.2109C10.1796 15.97 10.0917 15.7584 9.91593 15.5761L2.80654 8.62298L9.91593 1.66986C10.0917 1.48757 10.1796 1.27598 10.1796 1.0351C10.1796 0.865825 10.1389 0.714457 10.0575 0.580993C9.97614 0.44753 9.86872 0.341736 9.73526 0.263611C9.6018 0.185486 9.45043 0.146423 9.28115 0.146423C9.03376 0.146423 8.82218 0.231059 8.64639 0.400329L0.902253 7.97845C0.811107 8.0696 0.742747 8.16888 0.697174 8.2763C0.651601 8.38373 0.628815 8.49929 0.628815 8.62298Z"/>
        </symbol>
        <symbol id="icon-right" viewBox="0 0 11 18">
            <path d="M10.4717 8.62298C10.4717 8.49929 10.4473 8.38373 10.3985 8.2763C10.3497 8.16888 10.2797 8.0696 10.1885 7.97845L2.45416 0.400329C2.27838 0.231059 2.06354 0.146423 1.80963 0.146423C1.64687 0.146423 1.49713 0.185486 1.36041 0.263611C1.22369 0.341736 1.11627 0.44753 1.03815 0.580993C0.960022 0.714457 0.920959 0.865825 0.920959 1.0351C0.920959 1.27598 1.00559 1.48757 1.17487 1.66986L8.28424 8.62298L1.17487 15.5761C1.00559 15.7584 0.920959 15.97 0.920959 16.2109C0.920959 16.3802 0.960022 16.5316 1.03815 16.665C1.11627 16.7985 1.22369 16.9043 1.36041 16.9823C1.49713 17.0605 1.64687 17.0995 1.80963 17.0995C2.06354 17.0995 2.27838 17.0117 2.45416 16.8359L10.1885 9.26751C10.2797 9.17637 10.3497 9.07709 10.3985 8.96966C10.4473 8.86224 10.4717 8.74668 10.4717 8.62298Z"/>
        </symbol>
        <symbol id="icon-chevron-right" viewBox="0 0 7 12">
            <path d="M1.46892 11.5C1.71439 11.5 1.9215 11.4156 2.09026 11.2469L6.6851 6.69805C6.89988 6.49093 6.9996 6.26848 6.9996 6C6.9996 5.73152 6.89988 5.50139 6.69277 5.30195L2.09026 0.753138C1.9215 0.584379 1.71439 0.5 1.46892 0.5C0.977986 0.5 0.579102 0.891213 0.579102 1.38215C0.579102 1.62762 0.678823 1.85007 0.855252 2.03417L4.89012 6.00767L0.855252 9.9735C0.678823 10.1499 0.579102 10.3724 0.579102 10.6179C0.579102 11.1088 0.977986 11.5 1.46892 11.5Z" />
        </symbol>
        <symbol id="icon-down" viewBox="0 0 24 24">
            <path d="M6.10204 8C5.0281 8 4.45412 9.2649 5.16132 10.0731L10.6831 16.3838C11.3804 17.1806 12.6199 17.1806 13.3172 16.3838L18.839 10.0731C19.5462 9.2649 18.9722 8 17.8983 8H6.10204Z"/>
        </symbol>
        <symbol id="icon-xmark" viewBox="0 0 17 16">
            <path d="M1.23528 15.4277C1.35247 15.5384 1.48593 15.6133 1.63567 15.6523C1.78541 15.6914 1.93515 15.6914 2.08489 15.6523C2.23463 15.6133 2.36484 15.5384 2.47551 15.4277L8.72551 9.17775L14.9755 15.4277C15.0862 15.5384 15.2164 15.6133 15.3661 15.6523C15.5158 15.6914 15.6672 15.693 15.8202 15.6572C15.9732 15.6214 16.105 15.5449 16.2157 15.4277C16.3264 15.3171 16.3997 15.1869 16.4355 15.0371C16.4713 14.8874 16.4713 14.7377 16.4355 14.5879C16.3997 14.4382 16.3264 14.308 16.2157 14.1972L9.96575 7.93752L16.2157 1.68752C16.3264 1.57684 16.4013 1.44664 16.4404 1.2969C16.4795 1.14716 16.4795 0.997419 16.4404 0.847679C16.4013 0.69794 16.3264 0.567731 16.2157 0.457054C16.0986 0.339867 15.9651 0.263369 15.8154 0.227562C15.6656 0.191755 15.5158 0.191755 15.3661 0.227562C15.2164 0.263369 15.0862 0.339867 14.9755 0.457054L8.72551 6.70705L2.47551 0.457054C2.36484 0.339867 2.23301 0.263369 2.08001 0.227562C1.92702 0.191755 1.77565 0.191755 1.62591 0.227562C1.47617 0.263369 1.34596 0.339867 1.23528 0.457054C1.12461 0.567731 1.05136 0.69794 1.01556 0.847679C0.979749 0.997419 0.979749 1.14716 1.01556 1.2969C1.05136 1.44664 1.12461 1.57684 1.23528 1.68752L7.48528 7.93752L1.23528 14.1972C1.12461 14.308 1.04974 14.4382 1.01067 14.5879C0.971611 14.7377 0.969983 14.8874 1.00579 15.0371C1.0416 15.1869 1.1181 15.3171 1.23528 15.4277Z"/>
        </symbol>
        <symbol id="icon-xmark-circle" viewBox="0 0 21 21">
            <path fill-rule="evenodd" clip-rule="evenodd" d="M14.7514 20.1074C13.5503 20.6283 12.2693 20.8887 10.9086 20.8887C9.54795 20.8887 8.26703 20.6283 7.06585 20.1074C5.86469 19.5866 4.80512 18.8672 3.88714 17.9492C2.96918 17.0313 2.24978 15.9717 1.72894 14.7705C1.20811 13.5694 0.947693 12.2885 0.947693 10.9278C0.947693 9.56709 1.20811 8.28616 1.72894 7.08499C2.24978 5.88382 2.96755 4.82425 3.88226 3.90628C4.79698 2.98831 5.85492 2.26891 7.05609 1.74808C8.25727 1.22724 9.53819 0.966827 10.8989 0.966827C12.2595 0.966827 13.5421 1.22724 14.7465 1.74808C15.951 2.26891 17.0122 2.98831 17.9301 3.90628C18.8481 4.82425 19.5675 5.88382 20.0883 7.08499C20.6092 8.28616 20.8696 9.56709 20.8696 10.9278C20.8696 12.2885 20.6092 13.5694 20.0883 14.7705C19.5675 15.9717 18.8481 17.0313 17.9301 17.9492C17.0122 18.8672 15.9526 19.5866 14.7514 20.1074ZM7.06097 14.79C7.21722 14.9496 7.40603 15.0293 7.62738 15.0293C7.86175 15.0293 8.06032 14.9512 8.22308 14.7949L10.9184 12.0801L13.6235 14.7949C13.7732 14.9512 13.9653 15.0293 14.1997 15.0293C14.4276 15.0293 14.6196 14.9496 14.7758 14.79C14.9321 14.6306 15.0102 14.4402 15.0102 14.2188C15.0102 13.9779 14.9321 13.7858 14.7758 13.6426L12.061 10.9375L14.7856 8.22268C14.9419 8.05992 15.02 7.86787 15.02 7.64651C15.02 7.42516 14.9419 7.23636 14.7856 7.0801C14.6293 6.92386 14.4405 6.84573 14.2192 6.84573C14.0043 6.84573 13.8188 6.92386 13.6625 7.0801L10.9184 9.80471L8.19378 7.08987C8.03102 6.94013 7.84222 6.86526 7.62738 6.86526C7.40603 6.86526 7.21722 6.94176 7.06097 7.09475C6.90472 7.24775 6.8266 7.43818 6.8266 7.66604C6.8266 7.88088 6.90472 8.06968 7.06097 8.23244L9.77581 10.9375L7.06097 13.6523C6.90472 13.8086 6.8266 13.9974 6.8266 14.2188C6.8266 14.4402 6.90472 14.6306 7.06097 14.79Z" />
        </symbol>
        <symbol id="icon-add-circle" viewBox="0 0 21 21">
            <path d="M10.9498 20.8887C12.3105 20.8887 13.5915 20.6283 14.7926 20.1074C15.9938 19.5866 17.0534 18.8672 17.9713 17.9492C18.8893 17.0313 19.6087 15.9717 20.1295 14.7705C20.6504 13.5694 20.9108 12.2885 20.9108 10.9278C20.9108 9.56709 20.6504 8.28616 20.1295 7.08499C19.6087 5.88382 18.8893 4.82425 17.9713 3.90628C17.0534 2.98831 15.9922 2.26891 14.7877 1.74808C13.5833 1.22724 12.3007 0.966827 10.9401 0.966827C9.57939 0.966827 8.29846 1.22724 7.09729 1.74808C5.89612 2.26891 4.83818 2.98831 3.92346 3.90628C3.00875 4.82425 2.29097 5.88382 1.77014 7.08499C1.24931 8.28616 0.988892 9.56709 0.988892 10.9278C0.988892 12.2885 1.24931 13.5694 1.77014 14.7705C2.29097 15.9717 3.01038 17.0313 3.92834 17.9492C4.84631 18.8672 5.90588 19.5866 7.10705 20.1074C8.30822 20.6283 9.58915 20.8887 10.9498 20.8887Z"/>
            <path d="M6.1842 10.9375C6.1842 10.6836 6.26558 10.4769 6.42834 10.3174C6.5911 10.1579 6.79943 10.0782 7.05334 10.0782H10.11V7.02151C10.11 6.76761 10.1865 6.55927 10.3395 6.39651C10.4925 6.23375 10.6927 6.15237 10.9401 6.15237C11.1939 6.15237 11.4007 6.23375 11.5602 6.39651C11.7197 6.55927 11.7994 6.76761 11.7994 7.02151V10.0782H14.8659C15.1198 10.0782 15.3265 10.1579 15.486 10.3174C15.6455 10.4769 15.7252 10.6836 15.7252 10.9375C15.7252 11.1849 15.6438 11.3851 15.4811 11.5381C15.3183 11.6911 15.1132 11.7676 14.8659 11.7676H11.7994V14.834C11.7994 15.0879 11.7197 15.2946 11.5602 15.4541C11.4007 15.6137 11.1939 15.6934 10.9401 15.6934C10.6927 15.6934 10.4925 15.6137 10.3395 15.4541C10.1865 15.2946 10.11 15.0879 10.11 14.834V11.7676H7.05334C6.79943 11.7676 6.5911 11.6911 6.42834 11.5381C6.26558 11.3851 6.1842 11.1849 6.1842 10.9375Z" fill="white"/>
        </symbol>
        <symbol id="icon-copy" viewBox="0 0 13 16">
            <path d="M3.08059 3.51886H4.10321V2.0135C4.10321 1.69591 4.18685 1.45137 4.35411 1.27987C4.52137 1.10838 4.77015 1.02263 5.10044 1.02263H7.9079V4.28106C7.9079 4.64947 7.99788 4.92259 8.17782 5.10044C8.35782 5.27829 8.62989 5.36721 8.99403 5.36721H11.9666V10.798C11.9666 11.1155 11.8819 11.3601 11.7126 11.5316C11.5432 11.7031 11.2934 11.7888 10.9631 11.7888H9.71177V12.8115H11.0203C11.6766 12.8115 12.1688 12.6442 12.497 12.3097C12.8252 11.9751 12.9893 11.4776 12.9893 10.817V5.65939C12.9893 5.26982 12.9427 4.93953 12.8496 4.66852C12.7564 4.39751 12.5912 4.13921 12.3541 3.89361L9.14649 0.635173C8.92205 0.402276 8.67433 0.23819 8.40332 0.142914C8.13232 0.0476381 7.82532 0 7.48233 0H5.04962C4.39328 0 3.90102 0.167262 3.57284 0.501786C3.24467 0.836312 3.08059 1.33386 3.08059 1.99445V3.51886ZM8.82889 4.12863V1.52442L11.6999 4.44621H9.14012C9.03002 4.44621 8.95063 4.42186 8.90193 4.37316C8.85324 4.32447 8.82889 4.24296 8.82889 4.12863ZM0 13.9865C0 14.6513 0.164086 15.1499 0.492259 15.4823C0.820431 15.8147 1.31269 15.9809 1.96903 15.9809H7.93964C8.596 15.9809 9.08826 15.8137 9.41641 15.4791C9.74461 15.1446 9.90871 14.6471 9.90871 13.9865V9.02584C9.90871 8.75483 9.89388 8.52617 9.86423 8.33984C9.83461 8.15352 9.7764 7.98307 9.68959 7.82849C9.60278 7.67395 9.47467 7.50987 9.30526 7.33625L5.80548 3.77293C5.56411 3.52309 5.32698 3.36007 5.09409 3.28385C4.86119 3.20763 4.56689 3.16952 4.2112 3.16952H1.96903C1.31269 3.16952 0.820431 3.33678 0.492259 3.6713C0.164086 4.00583 0 4.50338 0 5.16395V13.9865ZM1.02263 13.9674V5.17666C1.02263 4.86331 1.10626 4.62088 1.27352 4.44939C1.44078 4.27789 1.68956 4.19214 2.01985 4.19214H4.10321V7.87616C4.10321 8.27842 4.20378 8.57907 4.40492 8.77809C4.60606 8.97712 4.90354 9.07664 5.29734 9.07664H8.88606V13.9674C8.88606 14.285 8.80138 14.5296 8.63201 14.7011C8.46264 14.8725 8.21492 14.9583 7.88884 14.9583H2.0135C1.68744 14.9583 1.44078 14.8725 1.27352 14.7011C1.10626 14.5296 1.02263 14.285 1.02263 13.9674ZM5.41803 8.11753C5.29099 8.11753 5.19995 8.09 5.1449 8.03493C5.08985 7.9799 5.06233 7.88887 5.06233 7.76182V4.42716L8.68918 8.11753H5.41803Z" fill-opacity="0.85"/>
        </symbol>
        <symbol id="icon-created-at" viewBox="0 0 20 20">
            <path d="M4.85352 11.0156H9.95117C10.1465 11.0156 10.3092 10.9505 10.4395 10.8203C10.5697 10.6901 10.6348 10.5273 10.6348 10.332V3.75C10.6348 3.5612 10.5697 3.4017 10.4395 3.27148C10.3092 3.14128 10.1465 3.07617 9.95117 3.07617C9.76237 3.07617 9.60287 3.14128 9.47266 3.27148C9.34245 3.4017 9.27734 3.5612 9.27734 3.75V9.6582H4.85352C4.65821 9.6582 4.49545 9.72331 4.36523 9.85352C4.23503 9.98371 4.16992 10.1432 4.16992 10.332C4.16992 10.5273 4.23503 10.6901 4.36523 10.8203C4.49545 10.9505 4.65821 11.0156 4.85352 11.0156Z" fill-opacity="0.85"/>
            <path d="M9.96094 19.9219C11.3216 19.9219 12.6026 19.6615 13.8037 19.1406C15.0049 18.6198 16.0645 17.9004 16.9824 16.9824C17.9004 16.0645 18.6198 15.0049 19.1406 13.8037C19.6615 12.6026 19.9219 11.3216 19.9219 9.96094C19.9219 8.60026 19.6615 7.31933 19.1406 6.11816C18.6198 4.91699 17.9004 3.85742 16.9824 2.93945C16.0645 2.02148 15.0033 1.30208 13.7988 0.78125C12.5944 0.260417 11.3119 0 9.95117 0C8.5905 0 7.30957 0.260417 6.1084 0.78125C4.90723 1.30208 3.84928 2.02148 2.93457 2.93945C2.01986 3.85742 1.30208 4.91699 0.78125 6.11816C0.260417 7.31933 0 8.60026 0 9.96094C0 11.3216 0.260417 12.6026 0.78125 13.8037C1.30208 15.0049 2.02148 16.0645 2.93945 16.9824C3.85742 17.9004 4.91699 18.6198 6.11816 19.1406C7.31933 19.6615 8.60026 19.9219 9.96094 19.9219ZM9.96094 18.2617C8.80859 18.2617 7.73112 18.0469 6.72852 17.6172C5.72591 17.1875 4.84538 16.5935 4.08691 15.835C3.32845 15.0765 2.736 14.196 2.30957 13.1934C1.88314 12.1908 1.66992 11.1133 1.66992 9.96094C1.66992 8.80859 1.88314 7.73112 2.30957 6.72852C2.736 5.72591 3.32682 4.84375 4.08203 4.08203C4.83724 3.32031 5.71614 2.72623 6.71875 2.2998C7.72136 1.87337 8.79883 1.66016 9.95117 1.66016C11.1035 1.66016 12.181 1.87337 13.1836 2.2998C14.1862 2.72623 15.0684 3.32031 15.8301 4.08203C16.5918 4.84375 17.1875 5.72591 17.6172 6.72852C18.0469 7.73112 18.2617 8.80859 18.2617 9.96094C18.2617 11.1133 18.0485 12.1908 17.6221 13.1934C17.1956 14.196 16.6032 15.0765 15.8447 15.835C15.0862 16.5935 14.2041 17.1875 13.1982 17.6172C12.1924 18.0469 11.1133 18.2617 9.96094 18.2617Z"/>
        </symbol>
        <symbol id="icon-updated-at" viewBox="0 0 12 12">
            <path d="M5.99707 11.9942C6.8163 11.9942 7.58749 11.8374 8.31064 11.5238C9.03384 11.2102 9.67176 10.7771 10.2244 10.2244C10.7771 9.67176 11.2102 9.03384 11.5238 8.31064C11.8374 7.58749 11.9942 6.8163 11.9942 5.99707C11.9942 5.17786 11.8374 4.40667 11.5238 3.68349C11.2102 2.96032 10.7771 2.3224 10.2244 1.76972C9.67176 1.21705 9.03285 0.783931 8.30769 0.470359C7.58257 0.156786 6.81041 0 5.99119 0C5.17199 0 4.40079 0.156786 3.67762 0.470359C2.95444 0.783931 2.3175 1.21705 1.76678 1.76972C1.21607 2.3224 0.783931 2.96032 0.470359 3.68349C0.156786 4.40667 0 5.17786 0 5.99707C0 6.8163 0.156786 7.58749 0.470359 8.31064C0.783931 9.03384 1.21705 9.67176 1.76972 10.2244C2.3224 10.7771 2.96032 11.2102 3.68349 11.5238C4.40667 11.8374 5.17786 11.9942 5.99707 11.9942ZM5.99707 10.9946C5.30329 10.9946 4.65459 10.8653 4.05097 10.6066C3.44734 10.3479 2.9172 9.99025 2.46056 9.5336C2.00392 9.07696 1.64724 8.54683 1.3905 7.94321C1.13376 7.33958 1.00539 6.69087 1.00539 5.99707C1.00539 5.30329 1.13376 4.65459 1.3905 4.05097C1.64724 3.44734 2.00294 2.91622 2.45762 2.45762C2.9123 1.99902 3.44146 1.64135 4.04508 1.38462C4.64871 1.12788 5.29741 0.999514 5.99119 0.999514C6.68498 0.999514 7.33368 1.12788 7.93731 1.38462C8.54093 1.64135 9.07205 1.99902 9.53065 2.45762C9.98926 2.91622 10.3479 3.44734 10.6066 4.05097C10.8653 4.65459 10.9946 5.30329 10.9946 5.99707C10.9946 6.69087 10.8663 7.33958 10.6095 7.94321C10.3528 8.54683 9.99609 9.07696 9.53944 9.5336C9.0828 9.99025 8.55169 10.3479 7.9461 10.6066C7.34054 10.8653 6.69087 10.9946 5.99707 10.9946ZM4.41549 9.43071H7.57866C7.77072 9.43071 7.92065 9.37877 8.02846 9.2749C8.13623 9.17102 8.19011 9.01913 8.19011 8.8192V8.7428C8.19011 8.44097 8.10289 8.1411 7.92845 7.8432C7.75406 7.54534 7.55122 7.26705 7.31995 7.00833C7.08868 6.74964 6.88487 6.53407 6.7085 6.3616C6.57914 6.23617 6.51741 6.11074 6.52331 5.98532C6.52917 5.85989 6.5909 5.73838 6.7085 5.62079C6.88487 5.44832 7.08868 5.23372 7.31995 4.97698C7.55122 4.72024 7.75406 4.44195 7.92845 4.14209C8.10289 3.84224 8.19011 3.54141 8.19011 3.2396V3.17492C8.19011 2.97502 8.13623 2.82215 8.02846 2.71632C7.92065 2.61049 7.77072 2.55758 7.57866 2.55758H4.41549C4.22735 2.55758 4.07938 2.61049 3.97159 2.71632C3.8638 2.82215 3.8099 2.97502 3.8099 3.17492V3.2396C3.8099 3.54141 3.89613 3.84224 4.0686 4.14209C4.24107 4.44195 4.44391 4.72024 4.67713 4.97698C4.91035 5.23372 5.11515 5.44832 5.29153 5.62079C5.40912 5.73838 5.46988 5.85989 5.4738 5.98532C5.47772 6.11074 5.41696 6.23617 5.29153 6.3616C5.11515 6.53407 4.91035 6.74964 4.67713 7.00833C4.44391 7.26705 4.24107 7.54534 4.0686 7.8432C3.89613 8.1411 3.8099 8.44097 3.8099 8.7428V8.8192C3.8099 9.01913 3.8638 9.17102 3.97159 9.2749C4.07938 9.37877 4.22735 9.43071 4.41549 9.43071ZM4.70359 8.92504C4.62127 8.92504 4.57228 8.88976 4.5566 8.8192C4.54092 8.74868 4.56052 8.68793 4.6154 8.63696L5.73249 7.49636C5.75209 7.47673 5.76679 7.45909 5.77659 7.44344C5.78639 7.42774 5.79129 7.40619 5.79129 7.37878V5.72662C5.79129 5.58551 5.74033 5.46596 5.63842 5.36797C5.50907 5.23862 5.37875 5.10829 5.24744 4.97698C5.11613 4.84567 4.99364 4.71926 4.87997 4.59776C4.82902 4.5468 4.81334 4.49879 4.83293 4.45371C4.85253 4.40863 4.89173 4.3861 4.95053 4.3861H7.04951C7.10831 4.3861 7.1475 4.40863 7.16709 4.45371C7.18668 4.49879 7.171 4.5468 7.12007 4.59776C7.00247 4.71926 6.87802 4.84567 6.74673 4.97698C6.6154 5.10829 6.48506 5.23862 6.3557 5.36797C6.25379 5.46596 6.20283 5.58551 6.20283 5.72662V7.37878C6.20283 7.40619 6.20773 7.42774 6.21752 7.44344C6.22736 7.45909 6.24207 7.47673 6.26165 7.49636L7.38462 8.63696C7.43559 8.68793 7.45323 8.74868 7.43754 8.8192C7.42188 8.88976 7.37289 8.92504 7.29057 8.92504H4.70359Z" />
        </symbol>
        <symbol id="icon-star" viewBox="0 0 18 17">
            <path d="M3.92432 15.8896C4.26855 16.1533 4.69336 16.0654 5.19141 15.7065L9 12.9087L12.8086 15.7065C13.3066 16.0654 13.7388 16.1533 14.083 15.8896C14.4199 15.6333 14.4932 15.2085 14.2954 14.6299L12.7939 10.1548L16.6392 7.39355C17.1299 7.04199 17.3423 6.65381 17.2031 6.24365C17.064 5.84082 16.6758 5.64307 16.0679 5.65039L11.3511 5.67969L9.91553 1.18262C9.73242 0.59668 9.43213 0.281738 9 0.281738C8.5752 0.281738 8.2749 0.59668 8.08447 1.18262L6.64893 5.67969L1.93213 5.65039C1.32422 5.64307 0.943359 5.84082 0.804199 6.24365C0.665039 6.65381 0.870117 7.04199 1.36816 7.39355L5.21338 10.1548L3.70459 14.6299C3.50684 15.2085 3.58008 15.6333 3.92432 15.8896ZM5.20605 14.1245C5.19873 14.1099 5.19873 14.1025 5.20605 14.0659L6.59766 10.1328C6.72217 9.77393 6.67822 9.54688 6.34863 9.32715L2.90625 6.96875C2.87695 6.9541 2.8623 6.93945 2.86963 6.91748C2.88428 6.90283 2.89893 6.89551 2.93555 6.89551L7.10303 6.99072C7.48389 7.00537 7.67432 6.88086 7.78418 6.51465L8.96338 2.51562C8.9707 2.47168 8.98535 2.46436 9 2.46436C9.02197 2.46436 9.0293 2.47168 9.04395 2.51562L10.2158 6.51465C10.3257 6.88086 10.5234 7.00537 10.897 6.99072L15.0645 6.89551C15.1084 6.89551 15.123 6.90283 15.1304 6.91748C15.1377 6.93945 15.1304 6.94678 15.0938 6.96875L11.6587 9.32715C11.3218 9.5542 11.2778 9.77393 11.4023 10.1328L12.7939 14.0659C12.8086 14.1025 12.8086 14.1099 12.7939 14.1245C12.7793 14.1465 12.7646 14.1318 12.7354 14.1172L9.43213 11.5684C9.13184 11.334 8.86816 11.334 8.5752 11.5684L5.27197 14.1172C5.24268 14.1318 5.2207 14.1465 5.20605 14.1245Z" />
        </symbol>
        <symbol id="icon-star-fill" viewBox="0 0 19 18">
            <path d="M3.53693 17.4648C3.87726 17.7305 4.3089 17.6392 4.82355 17.2656L9.21467 14.0366L13.6141 17.2656C14.1287 17.6392 14.5521 17.7305 14.9007 17.4648C15.241 17.2075 15.3157 16.7842 15.1082 16.1782L13.3734 11.0151L17.806 7.82764C18.3206 7.4624 18.5281 7.08057 18.3953 6.66553C18.2625 6.26709 17.8724 6.06787 17.2332 6.07617L11.7962 6.10938L10.1444 0.921387C9.94513 0.307129 9.64631 0 9.21467 0C8.79133 0 8.4925 0.307129 8.29328 0.921387L6.64142 6.10938L1.20441 6.07617C0.565251 6.06787 0.175114 6.26709 0.0423017 6.66553C-0.0988115 7.08057 0.117009 7.4624 0.631657 7.82764L5.06427 11.0151L3.32941 16.1782C3.12189 16.7842 3.1966 17.2075 3.53693 17.4648Z"/>
        </symbol>
        <symbol id="icon-delete" viewBox="0 0 22 22">
            <path fill-rule="evenodd" clip-rule="evenodd" d="M11 22C17.0751 22 22 17.0751 22 11C22 4.92487 17.0751 0 11 0C4.92487 0 0 4.92487 0 11C0 17.0751 4.92487 22 11 22Z" />
            <rect x="6" y="10.5" width="10" height="1" fill="white"/>
        </symbol>
        <symbol id="icon-caret" viewBox="0 0 14 7">
            <path fill-rule="evenodd" clip-rule="evenodd" d="M0.0703535 0L0 0.0696535L7 7L14 0.0696535L13.9296 0H0.0703535Z" />
        </symbol>
        <symbol id="icon-plus" viewBox="0 0 17 17">
            <path d="M0.697662 8.92776C0.697662 9.16865 0.783925 9.37373 0.956451 9.543C1.12898 9.71227 1.33243 9.7969 1.5668 9.7969H7.88516V16.1152C7.88516 16.3496 7.9698 16.5531 8.13907 16.7256C8.30834 16.8982 8.51342 16.9844 8.7543 16.9844C8.99519 16.9844 9.2019 16.8982 9.37442 16.7256C9.54695 16.5531 9.63321 16.3496 9.63321 16.1152V9.7969H15.9418C16.1762 9.7969 16.3796 9.71227 16.5522 9.543C16.7247 9.37373 16.811 9.16865 16.811 8.92776C16.811 8.68688 16.7247 8.48017 16.5522 8.30764C16.3796 8.13512 16.1762 8.04885 15.9418 8.04885H9.63321V1.74027C9.63321 1.50589 9.54695 1.30244 9.37442 1.12991C9.2019 0.957387 8.99519 0.871124 8.7543 0.871124C8.51342 0.871124 8.30834 0.957387 8.13907 1.12991C7.9698 1.30244 7.88516 1.50589 7.88516 1.74027V8.04885H1.5668C1.33243 8.04885 1.12898 8.13512 0.956451 8.30764C0.783925 8.48017 0.697662 8.68688 0.697662 8.92776Z" />
        </symbol>
        <symbol id="icon-type" viewBox="0 0 19 22">
            <path d="M16.2854 11.771L9.10772 18.9487C8.48272 19.5737 7.81052 19.979 7.09112 20.1645C6.37172 20.35 5.66534 20.3403 4.97198 20.1352C4.27862 19.9301 3.66501 19.5574 3.13116 19.0171C2.5973 18.4832 2.22784 17.8712 2.02276 17.1811C1.81768 16.491 1.80792 15.7863 1.99347 15.0669C2.17901 14.3475 2.58103 13.6753 3.19952 13.0503L12.9944 3.26511C13.3655 2.88751 13.7822 2.62384 14.2444 2.4741C14.7067 2.32436 15.1657 2.29507 15.6214 2.38621C16.0771 2.47736 16.484 2.69871 16.8421 3.05027C17.2002 3.41485 17.4248 3.82338 17.5159 4.27585C17.6071 4.72833 17.5761 5.18569 17.4231 5.64793C17.2701 6.11017 17.0081 6.52683 16.637 6.89793L7.06671 16.4682C6.82582 16.7156 6.57517 16.8214 6.31475 16.7856C6.05434 16.7498 5.83949 16.6505 5.67022 16.4878C5.50095 16.3185 5.40004 16.1037 5.36749 15.8432C5.33494 15.5828 5.4391 15.3289 5.67999 15.0815L12.3694 8.4116C12.5126 8.26186 12.5891 8.09096 12.5989 7.8989C12.6087 7.70685 12.5419 7.53921 12.3987 7.39597C12.2555 7.25925 12.0879 7.19415 11.8958 7.20066C11.7038 7.20718 11.5361 7.2853 11.3928 7.43503L4.6839 14.144C4.35186 14.4761 4.13214 14.8504 4.02472 15.2671C3.91729 15.6838 3.91403 16.0939 4.01495 16.4975C4.11586 16.9012 4.3128 17.2495 4.60577 17.5425C4.92478 17.8615 5.28611 18.0714 5.68975 18.1723C6.09339 18.2732 6.49867 18.2651 6.90558 18.1479C7.31248 18.0307 7.68194 17.8061 8.01397 17.4741L17.6233 7.86472C18.2353 7.25274 18.639 6.59845 18.8342 5.90183C19.0296 5.20522 19.0361 4.52163 18.8538 3.85105C18.6715 3.18048 18.3134 2.57827 17.7796 2.04441C17.2653 1.53009 16.6712 1.18016 15.9973 0.994609C15.3235 0.809062 14.6351 0.81069 13.9319 0.999492C13.2288 1.18829 12.5712 1.58868 11.9592 2.20066L2.11554 12.0542C1.51007 12.6597 1.0641 13.314 0.777643 14.0171C0.491185 14.7202 0.354467 15.4347 0.367487 16.1606C0.380508 16.8865 0.530248 17.588 0.816706 18.2651C1.10316 18.9422 1.51983 19.5509 2.06671 20.0913C2.60707 20.6316 3.21579 21.0467 3.89288 21.3364C4.56996 21.6261 5.27145 21.7759 5.99737 21.7856C6.72328 21.7954 7.4378 21.6571 8.14093 21.3706C8.84405 21.0841 9.49834 20.6414 10.1038 20.0425L17.3303 12.8159C17.4736 12.6727 17.5452 12.4937 17.5452 12.2788C17.5452 12.0639 17.4704 11.8881 17.3206 11.7514C17.1839 11.5952 17.013 11.5252 16.8079 11.5415C16.6029 11.5578 16.4287 11.6343 16.2854 11.771Z" />
        </symbol>
        <symbol id="icon-paperplane" viewBox="0 0 21 22">
            <path d="M12.6042 21.7051C12.9558 21.7051 13.2585 21.5651 13.5124 21.2852C13.7663 21.0052 13.9844 20.6308 14.1667 20.1621L20.5631 3.45312C20.6478 3.22526 20.7145 3.01367 20.7633 2.81836C20.8122 2.62305 20.8366 2.44076 20.8366 2.27148C20.8366 1.95248 20.7455 1.70183 20.5631 1.51953C20.3809 1.33724 20.1302 1.24609 19.8112 1.24609C19.6485 1.24609 19.4678 1.27051 19.2692 1.31933C19.0707 1.36816 18.8575 1.43489 18.6296 1.51953L1.8327 7.95507C1.42255 8.11133 1.07749 8.31641 0.797547 8.57031C0.517599 8.82422 0.377625 9.12695 0.377625 9.47851C0.377625 9.92773 0.530619 10.2516 0.836608 10.4502C1.1426 10.6488 1.52997 10.8197 1.99871 10.9629L7.27215 12.5645C7.58465 12.6621 7.84182 12.6995 8.04364 12.6768C8.24546 12.654 8.4538 12.5449 8.66864 12.3496L19.3815 2.33984C19.4401 2.28125 19.5036 2.25358 19.5719 2.25683C19.6403 2.26009 19.7006 2.2845 19.7526 2.33007C19.8047 2.37565 19.8307 2.43424 19.8307 2.50586C19.8307 2.57748 19.8014 2.64258 19.7428 2.70117L9.77215 13.4531C9.58335 13.655 9.47593 13.8552 9.44989 14.0537C9.42385 14.2523 9.4564 14.5143 9.54754 14.8398L11.1003 19.9961C11.2435 20.4844 11.416 20.8913 11.6178 21.2168C11.8197 21.5423 12.1485 21.7051 12.6042 21.7051Z" />
        </symbol>
        <symbol id="icon-spinner" viewBox="0 0 24 24">
            <circle class="opacity-25" cx="12" cy="12" r="10" stroke="currentColor" stroke-width="4"></circle>
            <path class="opacity-75" fill="currentColor" d="M4 12a8 8 0 018-8V0C5.373 0 0 5.373 0 12h4zm2 5.291A7.962 7.962 0 014 12H0c0 3.042 1.135 5.824 3 7.938l3-2.647z"></path>
        </symbol>
        <symbol id="icon-error" viewBox="0 0 12 11">
            <path d="M2.05086 10.5683H10.5079C10.9115 10.5683 11.2322 10.4414 11.4699 10.1875C11.7075 9.93356 11.8263 9.6243 11.8263 9.2597C11.8263 9.03183 11.7677 8.81373 11.6505 8.6054L7.41216 1.04685C7.28196 0.825493 7.11596 0.65785 6.91416 0.543916C6.71236 0.429983 6.50076 0.373016 6.27936 0.373016C6.05803 0.373016 5.84319 0.429983 5.63486 0.543916C5.42653 0.65785 5.26049 0.825493 5.13676 1.04685L0.90826 8.6152C0.791127 8.817 0.732559 9.03183 0.732559 9.2597C0.732559 9.6243 0.851359 9.93356 1.08896 10.1875C1.32656 10.4414 1.64719 10.5683 2.05086 10.5683Z" fill="#FFCC00"/>
            <path d="M6.27936 9.084C6.05803 9.084 5.866 9.0026 5.70326 8.8398C5.54046 8.67706 5.45906 8.48176 5.45906 8.2539C5.45906 8.0325 5.54046 7.84043 5.70326 7.6777C5.866 7.51496 6.05803 7.4336 6.27936 7.4336C6.50723 7.4336 6.70256 7.51496 6.86536 7.6777C7.0281 7.84043 7.10946 8.0325 7.10946 8.2539C7.10293 8.48176 7.01993 8.67706 6.86046 8.8398C6.70093 9.0026 6.50723 9.084 6.27936 9.084ZM6.27936 6.75C6.1101 6.75 5.97013 6.6979 5.85946 6.5937C5.74879 6.48956 5.69346 6.35286 5.69346 6.1836L5.61536 3.3906C5.60883 3.19528 5.66739 3.03415 5.79106 2.9072C5.91479 2.78024 6.07756 2.71677 6.27936 2.71677C6.4877 2.71677 6.65373 2.78024 6.77746 2.9072C6.90113 3.03415 6.95973 3.19528 6.95326 3.3906L6.87506 6.1836C6.86859 6.35286 6.81163 6.48956 6.70416 6.5937C6.59676 6.6979 6.45516 6.75 6.27936 6.75Z" fill="white"/>
        </symbol>
    </defs>
</svg>